# xmcd
#
# Track frame offsets: 
#        150
#        21995
#        41592
#        60700
#        72487
#        88277
#        102247
#        113927
#        128622
#        145870
#        159640
#        171590
#        190975
#        208697
#        225290
#        241210
#        260680
#        279920
#        300372
#        334190
#
# Disc length: 4712 seconds
#
# Revision: 5
# Processed by: cddbd v1.5.2PL0 Copyright (c) Steve Scherf et al.
# Submitted via: ExactAudioCopyFreeDBPlugin 1.0
#
DISCID=23126614
DTITLE=Boudewijn de Groot - Wonderkind Aan Het Strand - CD2-2
DYEAR=1996
DGENRE=Nederlandstalig
TTITLE0=Malle Babbe [live]
TTITLE1=Wie kan me nog vertellen
TTITLE2=Kinderballade
TTITLE3=Wegen [live]
TTITLE4=Als jij niet van mij houdt [live]
TTITLE5=Onderweg [alt. versie]
TTITLE6=Een slag zo zwaar verloren [live]
TTITLE7=Waterdrager
TTITLE8=Hoogtevrees [live]
TTITLE9=Vlucht in de werkelijkheid
TTITLE10=Ik ben ik
TTITLE11=Als het bericht slecht is...
TTITLE12=Travestie
TTITLE13=Een tip van de sluier
TTITLE14=Nachtschade
TTITLE15=Vertrek
TTITLE16=In your life [The Tower]
TTITLE17=Captain Decker [The Tower]
TTITLE18=De engel is gekomen
TTITLE19=Een wonderkind van 50 [live]
EXTD=
EXTT0=
EXTT1=
EXTT2=
EXTT3=
EXTT4=
EXTT5=
EXTT6=
EXTT7=
EXTT8=
EXTT9=
EXTT10=
EXTT11=
EXTT12=
EXTT13=
EXTT14=
EXTT15=
EXTT16=
EXTT17=
EXTT18=
EXTT19=
PLAYORDER=
